<svg width="20" height="27" viewBox="0 0 20 27" fill="none" xmlns="http://www.w3.org/2000/svg">
<path d="M18.75 10C19.0815 10 19.3995 10.1317 19.6339 10.3661C19.8683 10.6005 20 10.9185 20 11.25C20.0003 13.6856 19.1116 16.0377 17.5008 17.8646C15.89 19.6915 13.6678 20.8677 11.2513 21.1725L11.25 23.75H15C15.3315 23.75 15.6495 23.8817 15.8839 24.1161C16.1183 24.3505 16.25 24.6685 16.25 25C16.25 25.3315 16.1183 25.6495 15.8839 25.8839C15.6495 26.1183 15.3315 26.25 15 26.25H5C4.66848 26.25 4.35054 26.1183 4.11612 25.8839C3.8817 25.6495 3.75 25.3315 3.75 25C3.75 24.6685 3.8817 24.3505 4.11612 24.1161C4.35054 23.8817 4.66848 23.75 5 23.75H8.75V21.1725C6.33327 20.868 4.11076 19.6919 2.49969 17.865C0.888622 16.038 -0.000227117 13.6858 4.35304e-08 11.25C4.35304e-08 10.9185 0.131696 10.6005 0.366117 10.3661C0.600537 10.1317 0.918479 10 1.25 10C1.58152 10 1.89946 10.1317 2.13388 10.3661C2.3683 10.6005 2.5 10.9185 2.5 11.25C2.5 13.2391 3.29018 15.1468 4.6967 16.5533C6.10322 17.9598 8.01088 18.75 10 18.75C11.9891 18.75 13.8968 17.9598 15.3033 16.5533C16.7098 15.1468 17.5 13.2391 17.5 11.25C17.5 10.9185 17.6317 10.6005 17.8661 10.3661C18.1005 10.1317 18.4185 10 18.75 10ZM10 0C11.3261 0 12.5979 0.526784 13.5355 1.46447C14.4732 2.40215 15 3.67392 15 5V11.25C15 12.5761 14.4732 13.8479 13.5355 14.7855C12.5979 15.7232 11.3261 16.25 10 16.25C8.67392 16.25 7.40215 15.7232 6.46447 14.7855C5.52678 13.8479 5 12.5761 5 11.25V5C5 3.67392 5.52678 2.40215 6.46447 1.46447C7.40215 0.526784 8.67392 0 10 0Z" fill="black"/>
</svg>
