<svg width="24" height="18" viewBox="0 0 24 18" fill="none" xmlns="http://www.w3.org/2000/svg">
<path d="M9.66659 12.5L15.7216 8.99998L9.66659 5.49998V12.5ZM23.1533 3.36498C23.3049 3.91331 23.4099 4.64831 23.4799 5.58165C23.5616 6.51498 23.5966 7.31998 23.5966 8.01998L23.6666 8.99998C23.6666 11.555 23.4799 13.4333 23.1533 14.635C22.8616 15.685 22.1849 16.3616 21.1349 16.6533C20.5866 16.805 19.5833 16.91 18.0433 16.98C16.5266 17.0616 15.1383 17.0966 13.8549 17.0966L11.9999 17.1666C7.11159 17.1666 4.06659 16.98 2.86492 16.6533C1.81492 16.3616 1.13825 15.685 0.846585 14.635C0.694919 14.0866 0.589919 13.3516 0.519919 12.4183C0.438252 11.485 0.403252 10.68 0.403252 9.97998L0.333252 8.99998C0.333252 6.44498 0.519919 4.56665 0.846585 3.36498C1.13825 2.31498 1.81492 1.63831 2.86492 1.34665C3.41325 1.19498 4.41659 1.08998 5.95659 1.01998C7.47325 0.938313 8.86159 0.903313 10.1449 0.903313L11.9999 0.833313C16.8883 0.833313 19.9333 1.01998 21.1349 1.34665C22.1849 1.63831 22.8616 2.31498 23.1533 3.36498Z" fill="#282828"/>
</svg>
